<svg xmlns="http://www.w3.org/2000/svg" width="27.309" height="27.309" viewBox="0 0 27.309 27.309">
  <path id="Path_1990" data-name="Path 1990" d="M977.654-64.757a3.584,3.584,0,0,1,3.584,3.584,3.584,3.584,0,0,1-3.584,3.584,3.584,3.584,0,0,1-3.584-3.584A3.584,3.584,0,0,1,977.654-64.757Zm0,15.361c5.069,0,10.411,2.492,10.411,3.584v1.877H967.243v-1.877C967.243-46.9,972.585-49.4,977.654-49.4Zm0-18.6a6.825,6.825,0,0,0-6.827,6.827,6.825,6.825,0,0,0,6.827,6.827,6.825,6.825,0,0,0,6.827-6.827A6.825,6.825,0,0,0,977.654-68Zm0,15.361C973.1-52.639,964-50.352,964-45.812v5.12h27.309v-5.12C991.309-50.352,982.211-52.639,977.654-52.639Z" transform="translate(-964 68)" fill="#fff"/>
</svg>
